<?xml version="1.0" encoding="utf-8"?>
<!-- Generator: Adobe Illustrator 16.0.0, SVG Export Plug-In . SVG Version: 6.00 Build 0)  -->
<!DOCTYPE svg PUBLIC "-//W3C//DTD SVG 1.1//EN" "http://www.w3.org/Graphics/SVG/1.1/DTD/svg11.dtd">
<svg version="1.1" id="Layer_3" xmlns="http://www.w3.org/2000/svg" xmlns:xlink="http://www.w3.org/1999/xlink" x="0px" y="0px"
	 width="142.333px" height="142.596px" viewBox="0 0 142.333 142.596" enable-background="new 0 0 142.333 142.596"
	 xml:space="preserve">
<circle fill="#00B3C8" cx="71" cy="71" r="70.618"/>
<path fill="#FFFFFF" d="M35.06,60.254c-6.837,1.915-13.62,5.059-20.188,8.621l1.258,11.33c5.174-3.744,11.172-7.632,17.389-9.372
	c2.398-0.672,5.68-0.916,6.5,2.016c2.186,7.811-29.71,10.519-24.464,29.256c0.274,0.978,3.733,12.648,19.984,8.101
	c2.395-0.671,7.556-1.516,11.906-6.896l0.124,0.676c0.099,0.543,0.189,1.083,0.281,1.624l17.046-4.771
	c-2.486-8.882-7.19-31.507-7.812-33.726C55.021,59.74,49.089,56.326,35.06,60.254z M44.682,90.079l0.122,0.605
	c0.694,6.048-4.973,8.162-6.57,8.61c-2.398,0.672-5.107,0.572-5.878-2.182C30.888,91.872,41,88.663,43.64,85.433
	C43.979,86.979,44.335,88.527,44.682,90.079z"/>
<path fill="#FFFFFF" d="M87.683,30.584c1.274,4.91,2.53,9.731,3.604,14.6c-2.939,0.439-5.855,0.968-8.785,1.788
	C62.874,52.467,59.612,67.84,63.192,80.628c3.132,11.184,12.771,18.257,24.495,14.976c6.215-1.739,10.593-5.264,13.37-10.728
	l0.178-0.051l1.25,5.49l16.073-4.499c-3.481-12.435-5.733-22.527-7.771-32.205c-2.102-9.563-3.74-18.489-5.617-27.925L87.683,30.584
	z M90.256,81.862c-5.33,1.492-9.123-2.14-10.463-6.934c-1.967-7.018,0.549-14.806,9.516-17.317c1.509-0.422,2.979-0.643,4.501-0.686
	C96.053,65.298,99.846,79.177,90.256,81.862z"/>
<path fill="#FFFFFF" d="M140.452,58.273l-13.48-22.602l-17.408,4.874c9.277,13.302,18.619,26.486,27.326,40.136l4.201-1.176
	c0.335-2.791,0.527-5.624,0.527-8.505C141.618,66.653,141.204,62.404,140.452,58.273z"/>
</svg>
